<mxfile host="app.diagrams.net" modified="2022-02-23T21:46:27.091Z" agent="5.0 (Macintosh; Intel Mac OS X 10_15_7) AppleWebKit/537.36 (KHTML, like Gecko) Chrome/98.0.4758.102 Safari/537.36" etag="BYkFo7ehyPhz2ha7Vvq6" version="16.6.2" type="github" pages="4">
  <diagram id="8kdtg42xL2I4G0ouCTY_" name="Page-1">
    <mxGraphModel dx="4044" dy="2664" grid="1" gridSize="10" guides="1" tooltips="1" connect="1" arrows="1" fold="1" page="0" pageScale="1" pageWidth="850" pageHeight="1100" math="0" shadow="0">
      <root>
        <mxCell id="0" />
        <mxCell id="1" parent="0" />
        <mxCell id="Hbh6wv1MseDKdawe2fJE-1" value="" style="rounded=0;whiteSpace=wrap;html=1;fillColor=none;strokeWidth=8;" parent="1" vertex="1">
          <mxGeometry x="-200" y="-120" width="1200" height="720" as="geometry" />
        </mxCell>
        <mxCell id="Hbh6wv1MseDKdawe2fJE-10" value="&lt;h1&gt;Music&lt;/h1&gt;&lt;div&gt;&lt;font style=&quot;font-size: 14px&quot;&gt;this right side bar will house a music selection, songs will appear here with a title, cover art, and length.&amp;nbsp;&lt;/font&gt;&lt;/div&gt;" style="text;html=1;strokeColor=none;fillColor=none;spacing=5;spacingTop=-20;whiteSpace=wrap;overflow=hidden;rounded=0;" parent="1" vertex="1">
          <mxGeometry x="1080" y="-20" width="210" height="130" as="geometry" />
        </mxCell>
        <mxCell id="Hbh6wv1MseDKdawe2fJE-12" value="" style="curved=1;endArrow=classic;html=1;rounded=0;entryX=0.25;entryY=0;entryDx=0;entryDy=0;exitX=0;exitY=0.5;exitDx=0;exitDy=0;" parent="1" source="Hbh6wv1MseDKdawe2fJE-10" target="Hbh6wv1MseDKdawe2fJE-2" edge="1">
          <mxGeometry width="50" height="50" relative="1" as="geometry">
            <mxPoint x="1000" y="280" as="sourcePoint" />
            <mxPoint x="1050" y="230" as="targetPoint" />
            <Array as="points">
              <mxPoint x="1020" y="50" />
              <mxPoint x="1030" y="120" />
            </Array>
          </mxGeometry>
        </mxCell>
        <mxCell id="Hbh6wv1MseDKdawe2fJE-16" value="" style="group" parent="1" vertex="1" connectable="0">
          <mxGeometry x="800" y="-40" width="160" height="600" as="geometry" />
        </mxCell>
        <mxCell id="Hbh6wv1MseDKdawe2fJE-2" value="" style="rounded=1;whiteSpace=wrap;html=1;strokeWidth=1;fillColor=none;direction=south;" parent="Hbh6wv1MseDKdawe2fJE-16" vertex="1">
          <mxGeometry width="160" height="600" as="geometry" />
        </mxCell>
        <mxCell id="Hbh6wv1MseDKdawe2fJE-3" value="" style="rounded=1;whiteSpace=wrap;html=1;strokeWidth=1;fillColor=#d5e8d4;strokeColor=#82b366;" parent="Hbh6wv1MseDKdawe2fJE-16" vertex="1">
          <mxGeometry x="20" y="20" width="120" height="60" as="geometry" />
        </mxCell>
        <mxCell id="Hbh6wv1MseDKdawe2fJE-4" value="" style="rounded=1;whiteSpace=wrap;html=1;strokeWidth=1;fillColor=#d5e8d4;strokeColor=#82b366;" parent="Hbh6wv1MseDKdawe2fJE-16" vertex="1">
          <mxGeometry x="20" y="100" width="120" height="60" as="geometry" />
        </mxCell>
        <mxCell id="Hbh6wv1MseDKdawe2fJE-5" value="" style="rounded=1;whiteSpace=wrap;html=1;strokeWidth=1;fillColor=#d5e8d4;strokeColor=#82b366;" parent="Hbh6wv1MseDKdawe2fJE-16" vertex="1">
          <mxGeometry x="20" y="180" width="120" height="60" as="geometry" />
        </mxCell>
        <mxCell id="Hbh6wv1MseDKdawe2fJE-6" value="" style="rounded=1;whiteSpace=wrap;html=1;strokeWidth=1;fillColor=#d5e8d4;strokeColor=#82b366;" parent="Hbh6wv1MseDKdawe2fJE-16" vertex="1">
          <mxGeometry x="20" y="260" width="120" height="60" as="geometry" />
        </mxCell>
        <mxCell id="Hbh6wv1MseDKdawe2fJE-7" value="" style="rounded=1;whiteSpace=wrap;html=1;strokeWidth=1;fillColor=#d5e8d4;strokeColor=#82b366;" parent="Hbh6wv1MseDKdawe2fJE-16" vertex="1">
          <mxGeometry x="20" y="340" width="120" height="60" as="geometry" />
        </mxCell>
        <mxCell id="Hbh6wv1MseDKdawe2fJE-8" value="" style="rounded=1;whiteSpace=wrap;html=1;strokeWidth=1;fillColor=#d5e8d4;strokeColor=#82b366;" parent="Hbh6wv1MseDKdawe2fJE-16" vertex="1">
          <mxGeometry x="20" y="420" width="120" height="60" as="geometry" />
        </mxCell>
        <mxCell id="Hbh6wv1MseDKdawe2fJE-9" value="" style="rounded=1;whiteSpace=wrap;html=1;strokeWidth=1;fillColor=#d5e8d4;strokeColor=#82b366;" parent="Hbh6wv1MseDKdawe2fJE-16" vertex="1">
          <mxGeometry x="20" y="500" width="120" height="60" as="geometry" />
        </mxCell>
        <mxCell id="Hbh6wv1MseDKdawe2fJE-17" value="&lt;h1&gt;Nav Bar&lt;/h1&gt;&lt;div&gt;This will act as a navigation bar, One can cycle account page, discovery page, upload page.&lt;/div&gt;" style="text;html=1;strokeColor=none;fillColor=none;spacing=5;spacingTop=-20;whiteSpace=wrap;overflow=hidden;rounded=0;" parent="1" vertex="1">
          <mxGeometry x="370" y="-420" width="190" height="120" as="geometry" />
        </mxCell>
        <mxCell id="Hbh6wv1MseDKdawe2fJE-18" value="" style="curved=1;endArrow=classic;html=1;rounded=0;entryX=0.5;entryY=1;entryDx=0;entryDy=0;exitX=0.5;exitY=1;exitDx=0;exitDy=0;" parent="1" source="Hbh6wv1MseDKdawe2fJE-17" target="Hbh6wv1MseDKdawe2fJE-15" edge="1">
          <mxGeometry width="50" height="50" relative="1" as="geometry">
            <mxPoint x="400" y="40" as="sourcePoint" />
            <mxPoint x="450" y="-10" as="targetPoint" />
            <Array as="points">
              <mxPoint x="465" y="-210" />
              <mxPoint x="340" y="-220" />
            </Array>
          </mxGeometry>
        </mxCell>
        <mxCell id="Hbh6wv1MseDKdawe2fJE-22" value="" style="group" parent="1" vertex="1" connectable="0">
          <mxGeometry x="-90" y="-110" width="890" height="60" as="geometry" />
        </mxCell>
        <mxCell id="Hbh6wv1MseDKdawe2fJE-15" value="" style="rounded=1;whiteSpace=wrap;html=1;strokeWidth=1;fillColor=none;direction=west;" parent="Hbh6wv1MseDKdawe2fJE-22" vertex="1">
          <mxGeometry width="890" height="60" as="geometry" />
        </mxCell>
        <mxCell id="Hbh6wv1MseDKdawe2fJE-19" value="Account" style="text;html=1;strokeColor=none;fillColor=none;align=center;verticalAlign=middle;whiteSpace=wrap;rounded=0;" parent="Hbh6wv1MseDKdawe2fJE-22" vertex="1">
          <mxGeometry x="60" y="15" width="60" height="30" as="geometry" />
        </mxCell>
        <mxCell id="Hbh6wv1MseDKdawe2fJE-20" value="Discover" style="text;html=1;strokeColor=none;fillColor=none;align=center;verticalAlign=middle;whiteSpace=wrap;rounded=0;" parent="Hbh6wv1MseDKdawe2fJE-22" vertex="1">
          <mxGeometry x="180" y="15" width="60" height="30" as="geometry" />
        </mxCell>
        <mxCell id="Hbh6wv1MseDKdawe2fJE-21" value="Upload" style="text;html=1;strokeColor=none;fillColor=none;align=center;verticalAlign=middle;whiteSpace=wrap;rounded=0;" parent="Hbh6wv1MseDKdawe2fJE-22" vertex="1">
          <mxGeometry x="300" y="15" width="60" height="30" as="geometry" />
        </mxCell>
        <mxCell id="Hbh6wv1MseDKdawe2fJE-27" value="&lt;h1&gt;Music player&lt;/h1&gt;&lt;div&gt;&lt;font style=&quot;font-size: 14px&quot;&gt;The green will be cover art or animation, the blue is a music nav bar, play/pause, forward/backward, music progress bar&lt;/font&gt;&lt;/div&gt;" style="text;html=1;strokeColor=none;fillColor=none;spacing=5;spacingTop=-20;whiteSpace=wrap;overflow=hidden;rounded=0;" parent="1" vertex="1">
          <mxGeometry x="130" y="720" width="230" height="160" as="geometry" />
        </mxCell>
        <mxCell id="Hbh6wv1MseDKdawe2fJE-28" value="" style="curved=1;endArrow=classic;html=1;rounded=0;fontSize=14;entryX=0.5;entryY=1;entryDx=0;entryDy=0;exitX=0.5;exitY=0;exitDx=0;exitDy=0;" parent="1" source="Hbh6wv1MseDKdawe2fJE-27" target="Hbh6wv1MseDKdawe2fJE-24" edge="1">
          <mxGeometry width="50" height="50" relative="1" as="geometry">
            <mxPoint x="250" y="670" as="sourcePoint" />
            <mxPoint x="390" y="310" as="targetPoint" />
            <Array as="points">
              <mxPoint x="245" y="640" />
              <mxPoint x="335" y="620" />
            </Array>
          </mxGeometry>
        </mxCell>
        <mxCell id="Hbh6wv1MseDKdawe2fJE-29" value="" style="group" parent="1" vertex="1" connectable="0">
          <mxGeometry x="-90" width="850" height="520" as="geometry" />
        </mxCell>
        <mxCell id="Hbh6wv1MseDKdawe2fJE-24" value="" style="rounded=1;whiteSpace=wrap;html=1;strokeWidth=1;fillColor=none;gradientColor=#3705FF;" parent="Hbh6wv1MseDKdawe2fJE-29" vertex="1">
          <mxGeometry width="850" height="520" as="geometry" />
        </mxCell>
        <mxCell id="Hbh6wv1MseDKdawe2fJE-25" value="" style="rounded=1;whiteSpace=wrap;html=1;strokeWidth=1;fillColor=#d5e8d4;strokeColor=#82b366;" parent="Hbh6wv1MseDKdawe2fJE-29" vertex="1">
          <mxGeometry x="50" y="40" width="760" height="360" as="geometry" />
        </mxCell>
        <mxCell id="Hbh6wv1MseDKdawe2fJE-26" value="" style="rounded=1;whiteSpace=wrap;html=1;strokeWidth=1;fillColor=#dae8fc;strokeColor=#6c8ebf;" parent="Hbh6wv1MseDKdawe2fJE-29" vertex="1">
          <mxGeometry x="50" y="430" width="760" height="60" as="geometry" />
        </mxCell>
      </root>
    </mxGraphModel>
  </diagram>
  <diagram id="Lp3ub9B1sbOu9ZpcKDQ-" name="Home">
    <mxGraphModel dx="2603" dy="2131" grid="0" gridSize="10" guides="1" tooltips="1" connect="1" arrows="1" fold="1" page="0" pageScale="1" pageWidth="850" pageHeight="1100" math="0" shadow="0">
      <root>
        <mxCell id="ewdScKoGMy1fZ1iDkfr0-0" />
        <mxCell id="ewdScKoGMy1fZ1iDkfr0-1" parent="ewdScKoGMy1fZ1iDkfr0-0" />
        <mxCell id="jHxM66Looak-5hEwvELE-0" value="" style="rounded=0;whiteSpace=wrap;html=1;fillColor=none;strokeWidth=8;" vertex="1" parent="ewdScKoGMy1fZ1iDkfr0-1">
          <mxGeometry x="560" y="-200" width="1920" height="1080" as="geometry" />
        </mxCell>
        <mxCell id="NASc1CwOYMaEcNcSKyxm-0" value="&lt;h1 style=&quot;font-size: 34px&quot;&gt;&lt;font style=&quot;font-size: 34px&quot;&gt;Navigation Bar&lt;/font&gt;&lt;/h1&gt;&lt;p&gt;&lt;font style=&quot;font-size: 27px&quot;&gt;Contains the tiles for each page within the website&lt;/font&gt;&lt;/p&gt;" style="text;html=1;strokeColor=none;fillColor=none;spacing=5;spacingTop=-20;whiteSpace=wrap;overflow=hidden;rounded=0;" vertex="1" parent="ewdScKoGMy1fZ1iDkfr0-1">
          <mxGeometry x="70" y="170" width="350" height="210" as="geometry" />
        </mxCell>
        <mxCell id="8eYH5BBRQD31RjpEhHYT-2" value="" style="curved=1;endArrow=classic;html=1;rounded=0;fontSize=27;exitX=1;exitY=0.5;exitDx=0;exitDy=0;strokeWidth=3;" edge="1" parent="ewdScKoGMy1fZ1iDkfr0-1" source="NASc1CwOYMaEcNcSKyxm-0">
          <mxGeometry width="50" height="50" relative="1" as="geometry">
            <mxPoint x="810" y="360" as="sourcePoint" />
            <mxPoint x="530" y="70" as="targetPoint" />
            <Array as="points">
              <mxPoint x="500" y="300" />
              <mxPoint x="440" y="60" />
            </Array>
          </mxGeometry>
        </mxCell>
        <mxCell id="yxl69cmZombsrMElO1W1-1" value="&lt;h1 style=&quot;font-size: 34px&quot;&gt;&lt;font style=&quot;font-size: 34px&quot;&gt;Menu Bar&lt;/font&gt;&lt;/h1&gt;&lt;p&gt;&lt;font style=&quot;font-size: 27px&quot;&gt;Contains the website logo, name, and user profile (right hand side)&lt;/font&gt;&lt;/p&gt;" style="text;html=1;strokeColor=none;fillColor=none;spacing=5;spacingTop=-20;whiteSpace=wrap;overflow=hidden;rounded=0;" vertex="1" parent="ewdScKoGMy1fZ1iDkfr0-1">
          <mxGeometry x="1340" y="-450" width="460" height="210" as="geometry" />
        </mxCell>
        <mxCell id="yxl69cmZombsrMElO1W1-2" value="" style="curved=1;endArrow=classic;html=1;rounded=0;fontSize=27;strokeWidth=3;" edge="1" parent="ewdScKoGMy1fZ1iDkfr0-1">
          <mxGeometry width="50" height="50" relative="1" as="geometry">
            <mxPoint x="1320" y="-380" as="sourcePoint" />
            <mxPoint x="1280" y="-220" as="targetPoint" />
            <Array as="points">
              <mxPoint x="1210" y="-380" />
            </Array>
          </mxGeometry>
        </mxCell>
        <mxCell id="yxl69cmZombsrMElO1W1-36" value="" style="rounded=0;whiteSpace=wrap;html=1;fontSize=30;strokeColor=#000000;strokeWidth=4;fillColor=#3399FF;gradientColor=#B266FF;opacity=60;" vertex="1" parent="ewdScKoGMy1fZ1iDkfr0-1">
          <mxGeometry x="800" y="-120" width="1680" height="1000" as="geometry" />
        </mxCell>
        <mxCell id="yxl69cmZombsrMElO1W1-4" value="&lt;h1 style=&quot;font-size: 34px&quot;&gt;&quot;Popular&quot; Tiles&lt;/h1&gt;&lt;p&gt;&lt;font style=&quot;font-size: 27px&quot;&gt;Tiles that shuffle through &quot;trending&quot; music, videos, and art. Each tile is clickable and will take the to the corresponding page for that song/video/artwork.&lt;/font&gt;&lt;/p&gt;" style="text;html=1;strokeColor=none;fillColor=none;spacing=5;spacingTop=-20;whiteSpace=wrap;overflow=hidden;rounded=0;" vertex="1" parent="ewdScKoGMy1fZ1iDkfr0-1">
          <mxGeometry x="820" y="920" width="350" height="300" as="geometry" />
        </mxCell>
        <mxCell id="yxl69cmZombsrMElO1W1-6" value="" style="group" vertex="1" connectable="0" parent="ewdScKoGMy1fZ1iDkfr0-1">
          <mxGeometry x="560" y="-200" width="1920" height="1080" as="geometry" />
        </mxCell>
        <mxCell id="36U_r9k0YRjDBDuBfa2g-0" value="" style="rounded=0;whiteSpace=wrap;html=1;strokeWidth=8;fillColor=#f5f5f5;strokeColor=#666666;fontColor=#333333;" vertex="1" parent="yxl69cmZombsrMElO1W1-6">
          <mxGeometry y="80" width="240" height="1000" as="geometry" />
        </mxCell>
        <mxCell id="BsT5EeFdpuFRrpVlIiqD-0" value="" style="rounded=0;whiteSpace=wrap;html=1;strokeWidth=8;fillColor=#f5f5f5;strokeColor=#666666;fontColor=#333333;" vertex="1" parent="yxl69cmZombsrMElO1W1-6">
          <mxGeometry width="1920" height="80" as="geometry" />
        </mxCell>
        <mxCell id="yxl69cmZombsrMElO1W1-23" value="" style="group" vertex="1" connectable="0" parent="yxl69cmZombsrMElO1W1-6">
          <mxGeometry x="1390" y="240" width="470" height="740" as="geometry" />
        </mxCell>
        <mxCell id="yxl69cmZombsrMElO1W1-24" value="" style="rounded=1;whiteSpace=wrap;html=1;fontSize=27;strokeColor=#000000;strokeWidth=8;fillColor=#dae8fc;" vertex="1" parent="yxl69cmZombsrMElO1W1-23">
          <mxGeometry x="7.58" y="-70" width="454.84" height="670" as="geometry" />
        </mxCell>
        <mxCell id="yxl69cmZombsrMElO1W1-25" value="" style="rounded=1;whiteSpace=wrap;html=1;fontSize=27;strokeColor=#000000;strokeWidth=8;fillColor=#dae8fc;" vertex="1" parent="yxl69cmZombsrMElO1W1-23">
          <mxGeometry y="640" width="470" height="100" as="geometry" />
        </mxCell>
        <mxCell id="yxl69cmZombsrMElO1W1-26" value="" style="rounded=1;whiteSpace=wrap;html=1;fontSize=27;strokeColor=#000000;strokeWidth=4;fillColor=#fff2cc;" vertex="1" parent="yxl69cmZombsrMElO1W1-23">
          <mxGeometry x="30.32258064516129" y="660" width="90.96774193548387" height="60" as="geometry" />
        </mxCell>
        <mxCell id="yxl69cmZombsrMElO1W1-27" value="" style="rounded=1;whiteSpace=wrap;html=1;fontSize=27;strokeColor=#000000;strokeWidth=4;fillColor=#fff2cc;" vertex="1" parent="yxl69cmZombsrMElO1W1-23">
          <mxGeometry x="136.45161290322582" y="660" width="90.96774193548387" height="60" as="geometry" />
        </mxCell>
        <mxCell id="yxl69cmZombsrMElO1W1-28" value="" style="rounded=1;whiteSpace=wrap;html=1;fontSize=27;strokeColor=#000000;strokeWidth=4;fillColor=#fff2cc;" vertex="1" parent="yxl69cmZombsrMElO1W1-23">
          <mxGeometry x="242.5806451612903" y="660" width="90.96774193548387" height="60" as="geometry" />
        </mxCell>
        <mxCell id="yxl69cmZombsrMElO1W1-29" value="" style="rounded=1;whiteSpace=wrap;html=1;fontSize=27;strokeColor=#000000;strokeWidth=4;fillColor=#fff2cc;" vertex="1" parent="yxl69cmZombsrMElO1W1-23">
          <mxGeometry x="348.7096774193548" y="660" width="90.96774193548387" height="60" as="geometry" />
        </mxCell>
        <mxCell id="yxl69cmZombsrMElO1W1-39" value="&lt;span style=&quot;color: rgba(0 , 0 , 0 , 0) ; font-family: monospace ; font-size: 0px&quot;&gt;%3CmxGraphModel%3E%3Croot%3E%3CmxCell%20id%3D%220%22%2F%3E%3CmxCell%20id%3D%221%22%20parent%3D%220%22%2F%3E%3CmxCell%20id%3D%222%22%20value%3D%22%22%20style%3D%22rounded%3D1%3BwhiteSpace%3Dwrap%3Bhtml%3D1%3BfontSize%3D27%3BstrokeColor%3D%23000000%3BstrokeWidth%3D8%3BfillColor%3D%23d5e8d4%3B%22%20vertex%3D%221%22%20parent%3D%221%22%3E%3CmxGeometry%20x%3D%22867.5806451612904%22%20y%3D%2240%22%20width%3D%22454.8387096774194%22%20height%3D%22600%22%20as%3D%22geometry%22%2F%3E%3C%2FmxCell%3E%3C%2Froot%3E%3C%2FmxGraphModel%3E&lt;/span&gt;" style="rounded=1;whiteSpace=wrap;html=1;fontSize=27;strokeColor=#000000;strokeWidth=8;fillColor=#fff2cc;" vertex="1" parent="yxl69cmZombsrMElO1W1-23">
          <mxGeometry x="38.79" y="100" width="392.42" height="460" as="geometry" />
        </mxCell>
        <mxCell id="yxl69cmZombsrMElO1W1-30" value="Art" style="text;html=1;strokeColor=none;fillColor=none;align=center;verticalAlign=middle;whiteSpace=wrap;rounded=0;fontSize=55;" vertex="1" parent="yxl69cmZombsrMElO1W1-23">
          <mxGeometry x="25" y="-30" width="420" height="90" as="geometry" />
        </mxCell>
        <mxCell id="yxl69cmZombsrMElO1W1-5" value="" style="group" vertex="1" connectable="0" parent="yxl69cmZombsrMElO1W1-6">
          <mxGeometry x="300" y="170" width="470" height="810" as="geometry" />
        </mxCell>
        <mxCell id="8eYH5BBRQD31RjpEhHYT-3" value="" style="rounded=1;whiteSpace=wrap;html=1;fontSize=27;strokeColor=#000000;strokeWidth=8;fillColor=#dae8fc;" vertex="1" parent="yxl69cmZombsrMElO1W1-5">
          <mxGeometry x="7.58" width="454.84" height="670" as="geometry" />
        </mxCell>
        <mxCell id="8eYH5BBRQD31RjpEhHYT-4" value="" style="rounded=1;whiteSpace=wrap;html=1;fontSize=27;strokeColor=#000000;strokeWidth=8;fillColor=#dae8fc;" vertex="1" parent="yxl69cmZombsrMElO1W1-5">
          <mxGeometry y="710" width="470" height="100" as="geometry" />
        </mxCell>
        <mxCell id="8eYH5BBRQD31RjpEhHYT-5" value="" style="rounded=1;whiteSpace=wrap;html=1;fontSize=27;strokeColor=#000000;strokeWidth=4;fillColor=#d5e8d4;" vertex="1" parent="yxl69cmZombsrMElO1W1-5">
          <mxGeometry x="25.002580645161288" y="727.1624324324324" width="90.96774193548387" height="65.67567567567568" as="geometry" />
        </mxCell>
        <mxCell id="8eYH5BBRQD31RjpEhHYT-6" value="" style="rounded=1;whiteSpace=wrap;html=1;fontSize=27;strokeColor=#000000;strokeWidth=4;fillColor=#d5e8d4;" vertex="1" parent="yxl69cmZombsrMElO1W1-5">
          <mxGeometry x="131.13161290322583" y="727.1624324324324" width="90.96774193548387" height="65.67567567567568" as="geometry" />
        </mxCell>
        <mxCell id="8eYH5BBRQD31RjpEhHYT-7" value="" style="rounded=1;whiteSpace=wrap;html=1;fontSize=27;strokeColor=#000000;strokeWidth=4;fillColor=#d5e8d4;" vertex="1" parent="yxl69cmZombsrMElO1W1-5">
          <mxGeometry x="237.2606451612903" y="727.1624324324324" width="90.96774193548387" height="65.67567567567568" as="geometry" />
        </mxCell>
        <mxCell id="8eYH5BBRQD31RjpEhHYT-8" value="" style="rounded=1;whiteSpace=wrap;html=1;fontSize=27;strokeColor=#000000;strokeWidth=4;fillColor=#d5e8d4;" vertex="1" parent="yxl69cmZombsrMElO1W1-5">
          <mxGeometry x="343.3896774193548" y="727.1624324324324" width="90.96774193548387" height="65.67567567567568" as="geometry" />
        </mxCell>
        <mxCell id="yxl69cmZombsrMElO1W1-37" value="&lt;span style=&quot;color: rgba(0 , 0 , 0 , 0) ; font-family: monospace ; font-size: 0px&quot;&gt;%3CmxGraphModel%3E%3Croot%3E%3CmxCell%20id%3D%220%22%2F%3E%3CmxCell%20id%3D%221%22%20parent%3D%220%22%2F%3E%3CmxCell%20id%3D%222%22%20value%3D%22%22%20style%3D%22rounded%3D1%3BwhiteSpace%3Dwrap%3Bhtml%3D1%3BfontSize%3D27%3BstrokeColor%3D%23000000%3BstrokeWidth%3D8%3BfillColor%3D%23d5e8d4%3B%22%20vertex%3D%221%22%20parent%3D%221%22%3E%3CmxGeometry%20x%3D%22867.5806451612904%22%20y%3D%2240%22%20width%3D%22454.8387096774194%22%20height%3D%22600%22%20as%3D%22geometry%22%2F%3E%3C%2FmxCell%3E%3C%2Froot%3E%3C%2FmxGraphModel%3E&lt;/span&gt;" style="rounded=1;whiteSpace=wrap;html=1;fontSize=27;strokeColor=#000000;strokeWidth=8;fillColor=#d5e8d4;" vertex="1" parent="yxl69cmZombsrMElO1W1-5">
          <mxGeometry x="41.94" y="170" width="392.42" height="460" as="geometry" />
        </mxCell>
        <mxCell id="yxl69cmZombsrMElO1W1-3" value="Music" style="text;html=1;strokeColor=none;fillColor=none;align=center;verticalAlign=middle;whiteSpace=wrap;rounded=0;fontSize=55;" vertex="1" parent="yxl69cmZombsrMElO1W1-5">
          <mxGeometry x="19.680000000000007" y="40" width="420" height="90" as="geometry" />
        </mxCell>
        <mxCell id="yxl69cmZombsrMElO1W1-16" value="" style="group" vertex="1" connectable="0" parent="yxl69cmZombsrMElO1W1-6">
          <mxGeometry x="840" y="240" width="470" height="740" as="geometry" />
        </mxCell>
        <mxCell id="yxl69cmZombsrMElO1W1-17" value="" style="rounded=1;whiteSpace=wrap;html=1;fontSize=27;strokeColor=#000000;strokeWidth=8;fillColor=#dae8fc;" vertex="1" parent="yxl69cmZombsrMElO1W1-16">
          <mxGeometry x="7.58" y="-70" width="454.84" height="670" as="geometry" />
        </mxCell>
        <mxCell id="yxl69cmZombsrMElO1W1-18" value="" style="rounded=1;whiteSpace=wrap;html=1;fontSize=27;strokeColor=#000000;strokeWidth=8;fillColor=#dae8fc;" vertex="1" parent="yxl69cmZombsrMElO1W1-16">
          <mxGeometry y="640" width="470" height="100" as="geometry" />
        </mxCell>
        <mxCell id="yxl69cmZombsrMElO1W1-19" value="" style="rounded=1;whiteSpace=wrap;html=1;fontSize=27;strokeColor=#000000;strokeWidth=4;fillColor=#f8cecc;" vertex="1" parent="yxl69cmZombsrMElO1W1-16">
          <mxGeometry x="30.32258064516129" y="660" width="90.96774193548387" height="60" as="geometry" />
        </mxCell>
        <mxCell id="yxl69cmZombsrMElO1W1-20" value="" style="rounded=1;whiteSpace=wrap;html=1;fontSize=27;strokeColor=#000000;strokeWidth=4;fillColor=#f8cecc;" vertex="1" parent="yxl69cmZombsrMElO1W1-16">
          <mxGeometry x="136.45161290322582" y="660" width="90.96774193548387" height="60" as="geometry" />
        </mxCell>
        <mxCell id="yxl69cmZombsrMElO1W1-21" value="" style="rounded=1;whiteSpace=wrap;html=1;fontSize=27;strokeColor=#000000;strokeWidth=4;fillColor=#f8cecc;" vertex="1" parent="yxl69cmZombsrMElO1W1-16">
          <mxGeometry x="242.5806451612903" y="660" width="90.96774193548387" height="60" as="geometry" />
        </mxCell>
        <mxCell id="yxl69cmZombsrMElO1W1-22" value="" style="rounded=1;whiteSpace=wrap;html=1;fontSize=27;strokeColor=#000000;strokeWidth=4;fillColor=#f8cecc;" vertex="1" parent="yxl69cmZombsrMElO1W1-16">
          <mxGeometry x="348.7096774193548" y="660" width="90.96774193548387" height="60" as="geometry" />
        </mxCell>
        <mxCell id="yxl69cmZombsrMElO1W1-38" value="&lt;span style=&quot;color: rgba(0 , 0 , 0 , 0) ; font-family: monospace ; font-size: 0px&quot;&gt;%3CmxGraphModel%3E%3Croot%3E%3CmxCell%20id%3D%220%22%2F%3E%3CmxCell%20id%3D%221%22%20parent%3D%220%22%2F%3E%3CmxCell%20id%3D%222%22%20value%3D%22%22%20style%3D%22rounded%3D1%3BwhiteSpace%3Dwrap%3Bhtml%3D1%3BfontSize%3D27%3BstrokeColor%3D%23000000%3BstrokeWidth%3D8%3BfillColor%3D%23d5e8d4%3B%22%20vertex%3D%221%22%20parent%3D%221%22%3E%3CmxGeometry%20x%3D%22867.5806451612904%22%20y%3D%2240%22%20width%3D%22454.8387096774194%22%20height%3D%22600%22%20as%3D%22geometry%22%2F%3E%3C%2FmxCell%3E%3C%2Froot%3E%3C%2FmxGraphModel%3E&lt;/span&gt;" style="rounded=1;whiteSpace=wrap;html=1;fontSize=27;strokeColor=#000000;strokeWidth=8;fillColor=#f8cecc;" vertex="1" parent="yxl69cmZombsrMElO1W1-16">
          <mxGeometry x="38.79" y="100" width="392.42" height="460" as="geometry" />
        </mxCell>
        <mxCell id="yxl69cmZombsrMElO1W1-15" value="Videos" style="text;html=1;strokeColor=none;fillColor=none;align=center;verticalAlign=middle;whiteSpace=wrap;rounded=0;fontSize=55;" vertex="1" parent="yxl69cmZombsrMElO1W1-16">
          <mxGeometry x="25" y="-30" width="420" height="90" as="geometry" />
        </mxCell>
        <mxCell id="yxl69cmZombsrMElO1W1-33" value="&lt;font style=&quot;font-size: 30px&quot;&gt;Home&lt;/font&gt;" style="text;html=1;strokeColor=none;fillColor=none;align=center;verticalAlign=middle;whiteSpace=wrap;rounded=0;fontSize=55;" vertex="1" parent="yxl69cmZombsrMElO1W1-6">
          <mxGeometry x="90" y="120" width="60" height="30" as="geometry" />
        </mxCell>
        <mxCell id="yxl69cmZombsrMElO1W1-34" value="&lt;font style=&quot;font-size: 30px&quot;&gt;Profile&lt;/font&gt;" style="text;html=1;strokeColor=none;fillColor=none;align=center;verticalAlign=middle;whiteSpace=wrap;rounded=0;fontSize=55;" vertex="1" parent="yxl69cmZombsrMElO1W1-6">
          <mxGeometry x="1810" y="16" width="60" height="30" as="geometry" />
        </mxCell>
        <mxCell id="U5QrR9IHcfbl6In4K3l1-32" value="&lt;font style=&quot;font-size: 30px&quot;&gt;Music&lt;/font&gt;" style="text;html=1;strokeColor=none;fillColor=none;align=center;verticalAlign=middle;whiteSpace=wrap;rounded=0;fontSize=55;" vertex="1" parent="yxl69cmZombsrMElO1W1-6">
          <mxGeometry x="90" y="228" width="60" height="30" as="geometry" />
        </mxCell>
        <mxCell id="U5QrR9IHcfbl6In4K3l1-33" value="&lt;font style=&quot;font-size: 30px&quot;&gt;Videos&lt;/font&gt;" style="text;html=1;strokeColor=none;fillColor=none;align=center;verticalAlign=middle;whiteSpace=wrap;rounded=0;fontSize=55;" vertex="1" parent="yxl69cmZombsrMElO1W1-6">
          <mxGeometry x="90" y="335" width="60" height="30" as="geometry" />
        </mxCell>
        <mxCell id="U5QrR9IHcfbl6In4K3l1-34" value="&lt;font style=&quot;font-size: 30px&quot;&gt;Art&lt;/font&gt;" style="text;html=1;strokeColor=none;fillColor=none;align=center;verticalAlign=middle;whiteSpace=wrap;rounded=0;fontSize=55;" vertex="1" parent="yxl69cmZombsrMElO1W1-6">
          <mxGeometry x="90" y="439" width="60" height="30" as="geometry" />
        </mxCell>
        <mxCell id="U5QrR9IHcfbl6In4K3l1-35" value="&lt;font style=&quot;font-size: 30px&quot;&gt;Upload&lt;/font&gt;" style="text;html=1;strokeColor=none;fillColor=none;align=center;verticalAlign=middle;whiteSpace=wrap;rounded=0;fontSize=55;" vertex="1" parent="yxl69cmZombsrMElO1W1-6">
          <mxGeometry x="92" y="548" width="60" height="30" as="geometry" />
        </mxCell>
        <mxCell id="U5QrR9IHcfbl6In4K3l1-38" value="" style="ellipse;whiteSpace=wrap;html=1;fontSize=30;strokeColor=#000000;strokeWidth=4;fillColor=#0066CC;gradientColor=#6600CC;opacity=60;" vertex="1" parent="yxl69cmZombsrMElO1W1-6">
          <mxGeometry x="22" y="8.5" width="63" height="63" as="geometry" />
        </mxCell>
        <mxCell id="U5QrR9IHcfbl6In4K3l1-39" value="&lt;font style=&quot;font-size: 30px&quot;&gt;SoundScape&lt;/font&gt;" style="text;html=1;strokeColor=none;fillColor=none;align=center;verticalAlign=middle;whiteSpace=wrap;rounded=0;fontSize=55;" vertex="1" parent="yxl69cmZombsrMElO1W1-6">
          <mxGeometry x="152" y="16" width="60" height="30" as="geometry" />
        </mxCell>
        <mxCell id="yxl69cmZombsrMElO1W1-7" value="" style="curved=1;endArrow=classic;html=1;rounded=0;fontSize=55;strokeWidth=3;" edge="1" parent="ewdScKoGMy1fZ1iDkfr0-1">
          <mxGeometry width="50" height="50" relative="1" as="geometry">
            <mxPoint x="1190" y="990" as="sourcePoint" />
            <mxPoint x="1620" y="810" as="targetPoint" />
            <Array as="points">
              <mxPoint x="1430" y="1030" />
              <mxPoint x="1640" y="960" />
            </Array>
          </mxGeometry>
        </mxCell>
      </root>
    </mxGraphModel>
  </diagram>
  <diagram id="CJLjvGpUiDwa9coSCK6h" name="Upload Page">
    <mxGraphModel dx="3124" dy="2736" grid="1" gridSize="10" guides="1" tooltips="1" connect="1" arrows="1" fold="1" page="1" pageScale="1" pageWidth="1100" pageHeight="1700" math="0" shadow="0">
      <root>
        <mxCell id="S-dIcS50lSqpB5gt7JiZ-0" />
        <mxCell id="S-dIcS50lSqpB5gt7JiZ-1" parent="S-dIcS50lSqpB5gt7JiZ-0" />
        <mxCell id="JO5BjmD4TRdm733wltxC-0" value="" style="rounded=0;whiteSpace=wrap;html=1;fillColor=none;strokeWidth=8;" parent="S-dIcS50lSqpB5gt7JiZ-1" vertex="1">
          <mxGeometry x="-605" y="-350" width="1200" height="720" as="geometry" />
        </mxCell>
        <mxCell id="YGYQ3WCsdfabJsXma8mV-0" value="" style="group" parent="S-dIcS50lSqpB5gt7JiZ-1" vertex="1" connectable="0">
          <mxGeometry x="-450" y="-330" width="1010" height="60" as="geometry" />
        </mxCell>
        <mxCell id="YGYQ3WCsdfabJsXma8mV-1" value="" style="rounded=1;whiteSpace=wrap;html=1;strokeWidth=1;direction=west;fillColor=#d5e8d4;strokeColor=#82b366;" parent="YGYQ3WCsdfabJsXma8mV-0" vertex="1">
          <mxGeometry width="1010.0000000000001" height="60" as="geometry" />
        </mxCell>
        <mxCell id="YGYQ3WCsdfabJsXma8mV-2" value="Account" style="text;html=1;strokeColor=none;fillColor=none;align=center;verticalAlign=middle;whiteSpace=wrap;rounded=0;" parent="YGYQ3WCsdfabJsXma8mV-0" vertex="1">
          <mxGeometry x="68.08988764044945" y="15" width="68.08988764044945" height="30" as="geometry" />
        </mxCell>
        <mxCell id="YGYQ3WCsdfabJsXma8mV-3" value="Discover" style="text;html=1;strokeColor=none;fillColor=none;align=center;verticalAlign=middle;whiteSpace=wrap;rounded=0;" parent="YGYQ3WCsdfabJsXma8mV-0" vertex="1">
          <mxGeometry x="204.26966292134833" y="15" width="68.08988764044945" height="30" as="geometry" />
        </mxCell>
        <mxCell id="YGYQ3WCsdfabJsXma8mV-4" value="Upload" style="text;html=1;strokeColor=#b85450;fillColor=#f8cecc;align=center;verticalAlign=middle;whiteSpace=wrap;rounded=0;" parent="YGYQ3WCsdfabJsXma8mV-0" vertex="1">
          <mxGeometry x="340.4494382022472" y="15" width="68.08988764044945" height="30" as="geometry" />
        </mxCell>
        <mxCell id="YGYQ3WCsdfabJsXma8mV-5" value="SoundSpace&lt;br&gt;(logo?)" style="ellipse;shape=cloud;whiteSpace=wrap;html=1;fillColor=#e1d5e7;strokeColor=#9673a6;" parent="S-dIcS50lSqpB5gt7JiZ-1" vertex="1">
          <mxGeometry x="-590" y="-340" width="120" height="80" as="geometry" />
        </mxCell>
        <mxCell id="Cci4LVaYzpON20q8ZFuw-3" value="Insert Title Here" style="swimlane;fontStyle=0;childLayout=stackLayout;horizontal=1;startSize=30;horizontalStack=0;resizeParent=1;resizeParentMax=0;resizeLast=0;collapsible=1;marginBottom=0;" parent="S-dIcS50lSqpB5gt7JiZ-1" vertex="1">
          <mxGeometry x="-450" y="-190" width="1010" height="330" as="geometry" />
        </mxCell>
        <mxCell id="Cci4LVaYzpON20q8ZFuw-4" value="Description" style="text;align=left;verticalAlign=middle;spacingLeft=4;spacingRight=4;overflow=hidden;points=[[0,0.5],[1,0.5]];portConstraint=eastwest;rotatable=0;fillColor=#f5f5f5;fontColor=#333333;strokeColor=none;" parent="Cci4LVaYzpON20q8ZFuw-3" vertex="1">
          <mxGeometry y="30" width="1010" height="30" as="geometry" />
        </mxCell>
        <mxCell id="Cci4LVaYzpON20q8ZFuw-6" value="." style="text;align=left;verticalAlign=middle;spacingLeft=4;spacingRight=4;overflow=hidden;points=[[0,0.5],[1,0.5]];portConstraint=eastwest;rotatable=0;fillColor=#f5f5f5;strokeColor=none;fontColor=#333333;" parent="Cci4LVaYzpON20q8ZFuw-3" vertex="1">
          <mxGeometry y="60" width="1010" height="270" as="geometry" />
        </mxCell>
        <mxCell id="4guAEQpQQt9DHuchd6Xg-0" value="Link File Here" style="rounded=0;whiteSpace=wrap;html=1;fillColor=#d5e8d4;strokeColor=#82b366;" parent="S-dIcS50lSqpB5gt7JiZ-1" vertex="1">
          <mxGeometry x="-450" y="140" width="1010" height="40" as="geometry" />
        </mxCell>
        <mxCell id="4guAEQpQQt9DHuchd6Xg-1" value="Upload" style="rounded=1;whiteSpace=wrap;html=1;fillColor=#d5e8d4;strokeColor=#82b366;" parent="S-dIcS50lSqpB5gt7JiZ-1" vertex="1">
          <mxGeometry x="330" y="210" width="110" height="40" as="geometry" />
        </mxCell>
        <mxCell id="4guAEQpQQt9DHuchd6Xg-2" value="Upload A Video/Song to &amp;lt;Account Name&amp;gt;" style="text;html=1;strokeColor=none;fillColor=none;align=center;verticalAlign=middle;whiteSpace=wrap;rounded=0;fontSize=20;fontStyle=1" parent="S-dIcS50lSqpB5gt7JiZ-1" vertex="1">
          <mxGeometry x="-350" y="-260" width="760" height="50" as="geometry" />
        </mxCell>
        <mxCell id="eezeyXzOclRzomgjY8zf-1" value="Recent Uploads" style="swimlane;fontStyle=0;childLayout=stackLayout;horizontal=1;startSize=30;horizontalStack=0;resizeParent=1;resizeParentMax=0;resizeLast=0;collapsible=1;marginBottom=0;fontSize=16;" parent="S-dIcS50lSqpB5gt7JiZ-1" vertex="1">
          <mxGeometry x="-590" y="-220" width="120" height="440" as="geometry" />
        </mxCell>
        <mxCell id="eezeyXzOclRzomgjY8zf-2" value="Item 1&#xa;&#xa;&lt;thumbnail&gt;&#xa;&#xa;" style="text;strokeColor=#b85450;fillColor=#f8cecc;align=left;verticalAlign=middle;spacingLeft=4;spacingRight=4;overflow=hidden;points=[[0,0.5],[1,0.5]];portConstraint=eastwest;rotatable=0;fontSize=20;" parent="eezeyXzOclRzomgjY8zf-1" vertex="1">
          <mxGeometry y="30" width="120" height="120" as="geometry" />
        </mxCell>
        <mxCell id="eezeyXzOclRzomgjY8zf-3" value="Item 2&#xa;&#xa;&lt;thumbnail&gt;&#xa;&#xa;" style="text;strokeColor=#b85450;fillColor=#f8cecc;align=left;verticalAlign=middle;spacingLeft=4;spacingRight=4;overflow=hidden;points=[[0,0.5],[1,0.5]];portConstraint=eastwest;rotatable=0;fontSize=20;" parent="eezeyXzOclRzomgjY8zf-1" vertex="1">
          <mxGeometry y="150" width="120" height="140" as="geometry" />
        </mxCell>
        <mxCell id="eezeyXzOclRzomgjY8zf-4" value="Item 3&#xa;&#xa;&lt;thumbnail&gt;&#xa;&#xa;" style="text;strokeColor=#b85450;fillColor=#f8cecc;align=left;verticalAlign=middle;spacingLeft=4;spacingRight=4;overflow=hidden;points=[[0,0.5],[1,0.5]];portConstraint=eastwest;rotatable=0;fontSize=20;" parent="eezeyXzOclRzomgjY8zf-1" vertex="1">
          <mxGeometry y="290" width="120" height="150" as="geometry" />
        </mxCell>
        <mxCell id="qS-xk2JCKEOYtiAb881Q-0" value="&lt;h1&gt;Metadata&lt;/h1&gt;&lt;div&gt;Title for the video in the top bar. The larger bottom bar houses the description - maybe another section for tags, if we implement those?&lt;/div&gt;" style="text;html=1;strokeColor=none;fillColor=none;spacing=5;spacingTop=-20;whiteSpace=wrap;overflow=hidden;rounded=0;" parent="S-dIcS50lSqpB5gt7JiZ-1" vertex="1">
          <mxGeometry x="710" y="-310" width="200" height="120" as="geometry" />
        </mxCell>
        <mxCell id="qS-xk2JCKEOYtiAb881Q-1" value="" style="curved=1;endArrow=classic;html=1;rounded=0;exitX=0;exitY=0.5;exitDx=0;exitDy=0;entryX=1.002;entryY=0.086;entryDx=0;entryDy=0;entryPerimeter=0;" parent="S-dIcS50lSqpB5gt7JiZ-1" source="qS-xk2JCKEOYtiAb881Q-0" target="Cci4LVaYzpON20q8ZFuw-3" edge="1">
          <mxGeometry width="50" height="50" relative="1" as="geometry">
            <mxPoint x="60" y="100" as="sourcePoint" />
            <mxPoint x="110" y="50" as="targetPoint" />
            <Array as="points">
              <mxPoint x="660" y="-250" />
              <mxPoint x="650" y="-170" />
            </Array>
          </mxGeometry>
        </mxCell>
        <mxCell id="RnbxuDewPMMyrD2_hDWi-0" value="&lt;h1&gt;Nav Bar&lt;/h1&gt;&lt;div&gt;This will act as a navigation bar, One can cycle account page, discovery page, upload page.&lt;/div&gt;" style="text;html=1;strokeColor=none;fillColor=none;spacing=5;spacingTop=-20;whiteSpace=wrap;overflow=hidden;rounded=0;" parent="S-dIcS50lSqpB5gt7JiZ-1" vertex="1">
          <mxGeometry x="-160" y="-570" width="190" height="120" as="geometry" />
        </mxCell>
        <mxCell id="RnbxuDewPMMyrD2_hDWi-1" value="" style="curved=1;endArrow=classic;html=1;rounded=0;exitX=0.75;exitY=1;exitDx=0;exitDy=0;entryX=0.673;entryY=1;entryDx=0;entryDy=0;entryPerimeter=0;" parent="S-dIcS50lSqpB5gt7JiZ-1" source="RnbxuDewPMMyrD2_hDWi-0" target="YGYQ3WCsdfabJsXma8mV-1" edge="1">
          <mxGeometry width="50" height="50" relative="1" as="geometry">
            <mxPoint x="190" y="-210" as="sourcePoint" />
            <mxPoint x="240" y="-260" as="targetPoint" />
            <Array as="points">
              <mxPoint x="-10" y="-410" />
              <mxPoint x="-110" y="-400" />
            </Array>
          </mxGeometry>
        </mxCell>
        <mxCell id="RnbxuDewPMMyrD2_hDWi-2" value="&lt;h1&gt;Logo?&lt;/h1&gt;&lt;p&gt;Low priority - maybe implemented if we need to fill whitespace on a lot of pages&lt;/p&gt;" style="text;html=1;strokeColor=none;fillColor=none;spacing=5;spacingTop=-20;whiteSpace=wrap;overflow=hidden;rounded=0;" parent="S-dIcS50lSqpB5gt7JiZ-1" vertex="1">
          <mxGeometry x="-840" y="-530" width="190" height="120" as="geometry" />
        </mxCell>
        <mxCell id="RnbxuDewPMMyrD2_hDWi-3" value="" style="curved=1;endArrow=classic;html=1;rounded=0;exitX=1;exitY=0.5;exitDx=0;exitDy=0;entryX=0.4;entryY=0.1;entryDx=0;entryDy=0;entryPerimeter=0;" parent="S-dIcS50lSqpB5gt7JiZ-1" source="RnbxuDewPMMyrD2_hDWi-2" target="YGYQ3WCsdfabJsXma8mV-5" edge="1">
          <mxGeometry width="50" height="50" relative="1" as="geometry">
            <mxPoint x="-140" y="-210" as="sourcePoint" />
            <mxPoint x="-90" y="-260" as="targetPoint" />
            <Array as="points">
              <mxPoint x="-630" y="-430" />
              <mxPoint x="-520" y="-410" />
            </Array>
          </mxGeometry>
        </mxCell>
        <mxCell id="RnbxuDewPMMyrD2_hDWi-4" value="&lt;h1&gt;Link to File&lt;/h1&gt;&lt;p&gt;Current system is embedded YouTube videos - copy/paste the link here&lt;/p&gt;" style="text;html=1;strokeColor=none;fillColor=none;spacing=5;spacingTop=-20;whiteSpace=wrap;overflow=hidden;rounded=0;" parent="S-dIcS50lSqpB5gt7JiZ-1" vertex="1">
          <mxGeometry x="720" y="20" width="190" height="120" as="geometry" />
        </mxCell>
        <mxCell id="RnbxuDewPMMyrD2_hDWi-5" value="" style="curved=1;endArrow=classic;html=1;rounded=0;entryX=1;entryY=0.5;entryDx=0;entryDy=0;exitX=0;exitY=0.5;exitDx=0;exitDy=0;" parent="S-dIcS50lSqpB5gt7JiZ-1" source="RnbxuDewPMMyrD2_hDWi-4" target="4guAEQpQQt9DHuchd6Xg-0" edge="1">
          <mxGeometry width="50" height="50" relative="1" as="geometry">
            <mxPoint x="260" y="140" as="sourcePoint" />
            <mxPoint x="310" y="90" as="targetPoint" />
            <Array as="points">
              <mxPoint x="660" y="80" />
              <mxPoint x="650" y="170" />
            </Array>
          </mxGeometry>
        </mxCell>
        <mxCell id="RnbxuDewPMMyrD2_hDWi-6" value="&lt;h1&gt;Upload&lt;/h1&gt;&lt;p&gt;Submit the form. Once processed by backend, will be a viewable video on the user&#39;s account&lt;/p&gt;" style="text;html=1;strokeColor=none;fillColor=none;spacing=5;spacingTop=-20;whiteSpace=wrap;overflow=hidden;rounded=0;" parent="S-dIcS50lSqpB5gt7JiZ-1" vertex="1">
          <mxGeometry x="715" y="220" width="190" height="120" as="geometry" />
        </mxCell>
        <mxCell id="RnbxuDewPMMyrD2_hDWi-7" value="" style="curved=1;endArrow=classic;html=1;rounded=0;exitX=0;exitY=0.5;exitDx=0;exitDy=0;entryX=1;entryY=0.5;entryDx=0;entryDy=0;" parent="S-dIcS50lSqpB5gt7JiZ-1" source="RnbxuDewPMMyrD2_hDWi-6" target="4guAEQpQQt9DHuchd6Xg-1" edge="1">
          <mxGeometry width="50" height="50" relative="1" as="geometry">
            <mxPoint x="260" y="140" as="sourcePoint" />
            <mxPoint x="310" y="90" as="targetPoint" />
            <Array as="points">
              <mxPoint x="620" y="290" />
              <mxPoint x="550" y="220" />
            </Array>
          </mxGeometry>
        </mxCell>
        <mxCell id="RnbxuDewPMMyrD2_hDWi-8" value="&lt;h1&gt;Recent Uploads&lt;/h1&gt;&lt;p&gt;More whitespace filler - will display a few of the user&#39;s most recent uploads, most likely a title and thumbnail&lt;/p&gt;" style="text;html=1;strokeColor=none;fillColor=none;spacing=5;spacingTop=-20;whiteSpace=wrap;overflow=hidden;rounded=0;" parent="S-dIcS50lSqpB5gt7JiZ-1" vertex="1">
          <mxGeometry x="-990" y="-270" width="190" height="120" as="geometry" />
        </mxCell>
        <mxCell id="RnbxuDewPMMyrD2_hDWi-9" value="" style="curved=1;endArrow=classic;html=1;rounded=0;exitX=1;exitY=0.5;exitDx=0;exitDy=0;entryX=0.01;entryY=0.853;entryDx=0;entryDy=0;entryPerimeter=0;" parent="S-dIcS50lSqpB5gt7JiZ-1" source="RnbxuDewPMMyrD2_hDWi-8" target="eezeyXzOclRzomgjY8zf-2" edge="1">
          <mxGeometry width="50" height="50" relative="1" as="geometry">
            <mxPoint x="-50" y="120" as="sourcePoint" />
            <mxPoint y="70" as="targetPoint" />
            <Array as="points">
              <mxPoint x="-700" y="-210" />
              <mxPoint x="-700" y="-80" />
            </Array>
          </mxGeometry>
        </mxCell>
      </root>
    </mxGraphModel>
  </diagram>
  <diagram id="CCN1VwjMJm-A756CnHEl" name="img_upload">
    <mxGraphModel dx="2278" dy="1565" grid="1" gridSize="10" guides="1" tooltips="1" connect="1" arrows="1" fold="1" page="0" pageScale="1" pageWidth="850" pageHeight="1100" math="0" shadow="0">
      <root>
        <mxCell id="AjRlo0yBoIG3sStQsVa1-0" />
        <mxCell id="AjRlo0yBoIG3sStQsVa1-1" parent="AjRlo0yBoIG3sStQsVa1-0" />
        <mxCell id="AjRlo0yBoIG3sStQsVa1-2" value="" style="group" parent="AjRlo0yBoIG3sStQsVa1-1" vertex="1" connectable="0">
          <mxGeometry x="70" y="80" width="840" height="480" as="geometry" />
        </mxCell>
        <mxCell id="AjRlo0yBoIG3sStQsVa1-3" value="" style="rounded=0;whiteSpace=wrap;html=1;fillColor=#f8cecc;strokeColor=#b85450;" parent="AjRlo0yBoIG3sStQsVa1-2" vertex="1">
          <mxGeometry width="840" height="50" as="geometry" />
        </mxCell>
        <mxCell id="AjRlo0yBoIG3sStQsVa1-4" value="" style="rounded=0;whiteSpace=wrap;html=1;fillColor=#f8cecc;strokeColor=#b85450;" parent="AjRlo0yBoIG3sStQsVa1-2" vertex="1">
          <mxGeometry y="50" width="110" height="430" as="geometry" />
        </mxCell>
        <mxCell id="AjRlo0yBoIG3sStQsVa1-5" value="" style="rounded=0;whiteSpace=wrap;html=1;fillColor=none;" parent="AjRlo0yBoIG3sStQsVa1-2" vertex="1">
          <mxGeometry width="840" height="480" as="geometry" />
        </mxCell>
        <mxCell id="AjRlo0yBoIG3sStQsVa1-6" value="" style="group" parent="AjRlo0yBoIG3sStQsVa1-2" vertex="1" connectable="0">
          <mxGeometry x="210" y="100" width="590" height="270" as="geometry" />
        </mxCell>
        <mxCell id="AjRlo0yBoIG3sStQsVa1-7" value="" style="rounded=0;whiteSpace=wrap;html=1;fillColor=#d5e8d4;strokeColor=#82b366;" parent="AjRlo0yBoIG3sStQsVa1-6" vertex="1">
          <mxGeometry x="490" y="240" width="100" height="30" as="geometry" />
        </mxCell>
        <mxCell id="AjRlo0yBoIG3sStQsVa1-8" value="" style="whiteSpace=wrap;html=1;fillColor=#d5e8d4;strokeColor=#82b366;" parent="AjRlo0yBoIG3sStQsVa1-6" vertex="1">
          <mxGeometry width="590" height="220" as="geometry" />
        </mxCell>
        <mxCell id="AjRlo0yBoIG3sStQsVa1-9" style="edgeStyle=orthogonalEdgeStyle;rounded=0;orthogonalLoop=1;jettySize=auto;html=1;exitX=0.5;exitY=1;exitDx=0;exitDy=0;entryX=0.25;entryY=0;entryDx=0;entryDy=0;" parent="AjRlo0yBoIG3sStQsVa1-1" source="AjRlo0yBoIG3sStQsVa1-10" target="AjRlo0yBoIG3sStQsVa1-5" edge="1">
          <mxGeometry relative="1" as="geometry" />
        </mxCell>
        <mxCell id="AjRlo0yBoIG3sStQsVa1-10" value="&lt;h1&gt;Nav Bar&lt;/h1&gt;&lt;div&gt;This is the navbar that appears on every page.&lt;/div&gt;" style="text;html=1;strokeColor=none;fillColor=none;spacing=5;spacingTop=-20;whiteSpace=wrap;overflow=hidden;rounded=0;" parent="AjRlo0yBoIG3sStQsVa1-1" vertex="1">
          <mxGeometry x="190" y="-150" width="190" height="120" as="geometry" />
        </mxCell>
        <mxCell id="AjRlo0yBoIG3sStQsVa1-11" style="edgeStyle=orthogonalEdgeStyle;rounded=0;orthogonalLoop=1;jettySize=auto;html=1;exitX=0;exitY=0.5;exitDx=0;exitDy=0;entryX=0.952;entryY=0.418;entryDx=0;entryDy=0;entryPerimeter=0;" parent="AjRlo0yBoIG3sStQsVa1-1" source="AjRlo0yBoIG3sStQsVa1-12" target="AjRlo0yBoIG3sStQsVa1-5" edge="1">
          <mxGeometry relative="1" as="geometry">
            <Array as="points">
              <mxPoint x="905" y="281" />
            </Array>
          </mxGeometry>
        </mxCell>
        <mxCell id="AjRlo0yBoIG3sStQsVa1-12" value="&lt;h1&gt;Image browser&lt;/h1&gt;&lt;div&gt;This will assist the user in uploading the correct image&lt;/div&gt;" style="text;html=1;strokeColor=none;fillColor=none;spacing=5;spacingTop=-20;whiteSpace=wrap;overflow=hidden;rounded=0;" parent="AjRlo0yBoIG3sStQsVa1-1" vertex="1">
          <mxGeometry x="970" y="220" width="190" height="120" as="geometry" />
        </mxCell>
        <mxCell id="AjRlo0yBoIG3sStQsVa1-13" style="edgeStyle=orthogonalEdgeStyle;rounded=0;orthogonalLoop=1;jettySize=auto;html=1;exitX=0.5;exitY=0;exitDx=0;exitDy=0;" parent="AjRlo0yBoIG3sStQsVa1-1" source="AjRlo0yBoIG3sStQsVa1-14" edge="1">
          <mxGeometry relative="1" as="geometry">
            <mxPoint x="830" y="449.9999999999998" as="targetPoint" />
          </mxGeometry>
        </mxCell>
        <mxCell id="AjRlo0yBoIG3sStQsVa1-14" value="&lt;h1&gt;upload button&lt;/h1&gt;&lt;div&gt;This will post the image to the users images page&lt;/div&gt;" style="text;html=1;strokeColor=none;fillColor=none;spacing=5;spacingTop=-20;whiteSpace=wrap;overflow=hidden;rounded=0;" parent="AjRlo0yBoIG3sStQsVa1-1" vertex="1">
          <mxGeometry x="750" y="650" width="190" height="120" as="geometry" />
        </mxCell>
      </root>
    </mxGraphModel>
  </diagram>
</mxfile>
